# xmcd CD database file
#
# Track frame offsets:
#	150
#	20830
#	36337
#	53100
#	74732
#	87287
#	104960
#	121392
#	135815
#	159182
#	175595
#	192732
#
# Disc length: 2772 seconds
#
# Revision: 0
# Processed by: cddbd v1.5.1PL0 Copyright (c) Steve Scherf et al.
# Submitted via: cdripper 1.0.7
#
DISCID=ab0ad20c
DTITLE=Priscilla Price - I'm Not for Sale
DYEAR=1997
DGENRE=Blues
TTITLE0=I'm Not for Sale
TTITLE1=Crazy to Care
TTITLE2=Out of My Heart
TTITLE3=Twisting the Knife
TTITLE4=Empty Zone
TTITLE5=Breaking up With You (Don't Make It with
TTITLE6=She Set You Free
TTITLE7=Love Keeps on Workin'
TTITLE8=Make Me or Break Me
TTITLE9=Mighty Big Shoes to Fill
TTITLE10=The Tail Is Waggin' the Dog
TTITLE11=Hold Me
EXTD=YEAR: 1997
EXTT0=
EXTT1=
EXTT2=
EXTT3=
EXTT4=
EXTT5=
EXTT6=
EXTT7=
EXTT8=
EXTT9=
EXTT10=
EXTT11=
PLAYORDER=
